<mxfile host="app.diagrams.net" agent="Mozilla/5.0 (Windows NT 10.0; Win64; x64; rv:142.0) Gecko/20100101 Firefox/142.0" version="28.2.3" pages="3">
  <diagram name="Page-1" id="y7lRkNiUXqSWCW_BmIWg">
    <mxGraphModel dx="1055" dy="599" grid="0" gridSize="10" guides="1" tooltips="1" connect="1" arrows="1" fold="1" page="1" pageScale="1" pageWidth="827" pageHeight="1169" math="0" shadow="0">
      <root>
        <mxCell id="0" />
        <mxCell id="1" parent="0" />
        <mxCell id="V9GFSU_2BiK_DdWcjL9w-1" value="" style="image;html=1;image=img/lib/clip_art/networking/Wireless_Router_N_128x128.png" vertex="1" parent="1">
          <mxGeometry x="330" y="9" width="80" height="80" as="geometry" />
        </mxCell>
        <mxCell id="V9GFSU_2BiK_DdWcjL9w-2" value="" style="image;html=1;image=img/lib/clip_art/networking/Wireless_Router_128x128.png" vertex="1" parent="1">
          <mxGeometry x="96" y="15" width="80" height="80" as="geometry" />
        </mxCell>
        <mxCell id="V9GFSU_2BiK_DdWcjL9w-3" value="" style="sketch=0;aspect=fixed;pointerEvents=1;shadow=0;dashed=0;html=1;strokeColor=none;labelPosition=center;verticalLabelPosition=bottom;verticalAlign=top;align=center;fillColor=#00188D;shape=mxgraph.azure.computer" vertex="1" parent="1">
          <mxGeometry x="604" y="275" width="50" height="45" as="geometry" />
        </mxCell>
        <mxCell id="V9GFSU_2BiK_DdWcjL9w-4" value="" style="image;html=1;image=img/lib/clip_art/computers/Server_Tower_128x128.png" vertex="1" parent="1">
          <mxGeometry x="73" y="260" width="80" height="80" as="geometry" />
        </mxCell>
        <mxCell id="V9GFSU_2BiK_DdWcjL9w-5" value="" style="image;html=1;image=img/lib/clip_art/networking/Router_Icon_128x128.png" vertex="1" parent="1">
          <mxGeometry x="336" y="152" width="80" height="80" as="geometry" />
        </mxCell>
        <mxCell id="V9GFSU_2BiK_DdWcjL9w-7" value="&lt;font style=&quot;font-size: 10px;&quot;&gt;40.0.0.1&lt;/font&gt;" style="text;strokeColor=none;align=center;fillColor=none;html=1;verticalAlign=middle;whiteSpace=wrap;rounded=0;" vertex="1" parent="1">
          <mxGeometry x="267" y="187" width="60" height="30" as="geometry" />
        </mxCell>
        <mxCell id="V9GFSU_2BiK_DdWcjL9w-8" value="Finance 1 (VM)" style="text;strokeColor=none;align=left;fillColor=none;html=1;verticalAlign=middle;whiteSpace=wrap;rounded=0;" vertex="1" parent="1">
          <mxGeometry x="419" y="551" width="87" height="30" as="geometry" />
        </mxCell>
        <mxCell id="V9GFSU_2BiK_DdWcjL9w-9" value="&lt;font style=&quot;font-size: 10px;&quot;&gt;30.0.0.1&lt;/font&gt;" style="text;strokeColor=none;align=center;fillColor=none;html=1;verticalAlign=middle;whiteSpace=wrap;rounded=0;" vertex="1" parent="1">
          <mxGeometry x="419" y="185" width="60" height="30" as="geometry" />
        </mxCell>
        <mxCell id="V9GFSU_2BiK_DdWcjL9w-10" value="&lt;div align=&quot;left&quot;&gt;Cisco C3560 switch (l2)&lt;/div&gt;&lt;div align=&quot;left&quot;&gt;&amp;nbsp; &amp;nbsp; -Segments labs with&amp;nbsp; &amp;nbsp; &amp;nbsp; &amp;nbsp; VLANs&lt;/div&gt;" style="text;strokeColor=none;align=left;fillColor=none;html=1;verticalAlign=middle;whiteSpace=wrap;rounded=0;" vertex="1" parent="1">
          <mxGeometry x="323" y="230" width="132" height="30" as="geometry" />
        </mxCell>
        <mxCell id="V9GFSU_2BiK_DdWcjL9w-11" value="&lt;div align=&quot;left&quot;&gt;Finance 2 (VM)&lt;/div&gt;" style="text;strokeColor=none;align=left;fillColor=none;html=1;verticalAlign=middle;whiteSpace=wrap;rounded=0;" vertex="1" parent="1">
          <mxGeometry x="590" y="549" width="110" height="30" as="geometry" />
        </mxCell>
        <mxCell id="V9GFSU_2BiK_DdWcjL9w-12" value="&lt;div&gt;TP-Link&amp;nbsp;&lt;/div&gt;&lt;div&gt;&amp;nbsp; &amp;nbsp;-Converts home&amp;nbsp; &amp;nbsp; &amp;nbsp; &amp;nbsp; &amp;nbsp;Wi-Fi to ethernet&lt;/div&gt;" style="text;strokeColor=none;align=left;fillColor=none;html=1;verticalAlign=middle;whiteSpace=wrap;rounded=0;" vertex="1" parent="1">
          <mxGeometry x="73" y="101" width="111" height="30" as="geometry" />
        </mxCell>
        <mxCell id="V9GFSU_2BiK_DdWcjL9w-13" value="&lt;font style=&quot;font-size: 10px;&quot;&gt;20.0.0.1&lt;/font&gt;" style="text;strokeColor=none;align=center;fillColor=none;html=1;verticalAlign=middle;whiteSpace=wrap;rounded=0;" vertex="1" parent="1">
          <mxGeometry x="384" y="260" width="60" height="30" as="geometry" />
        </mxCell>
        <mxCell id="V9GFSU_2BiK_DdWcjL9w-15" value="&lt;div align=&quot;left&quot;&gt;Sales 1 (VM)&lt;/div&gt;" style="text;strokeColor=none;align=left;fillColor=none;html=1;verticalAlign=middle;whiteSpace=wrap;rounded=0;" vertex="1" parent="1">
          <mxGeometry x="98.5" y="551" width="83.5" height="30" as="geometry" />
        </mxCell>
        <mxCell id="V9GFSU_2BiK_DdWcjL9w-16" value="&lt;div align=&quot;left&quot;&gt;Sales 2 (VM)&lt;/div&gt;" style="text;strokeColor=none;align=left;fillColor=none;html=1;verticalAlign=middle;whiteSpace=wrap;rounded=0;" vertex="1" parent="1">
          <mxGeometry x="275" y="551" width="75" height="30" as="geometry" />
        </mxCell>
        <mxCell id="V9GFSU_2BiK_DdWcjL9w-17" value="&lt;div align=&quot;left&quot;&gt;Cisco 881 Router&lt;/div&gt;&lt;div align=&quot;left&quot;&gt;&amp;nbsp; &amp;nbsp;-Performs NAT&lt;/div&gt;&lt;div align=&quot;left&quot;&gt;&lt;br&gt;&lt;/div&gt;" style="text;strokeColor=none;align=left;fillColor=none;html=1;verticalAlign=middle;whiteSpace=wrap;rounded=0;" vertex="1" parent="1">
          <mxGeometry x="414" y="63" width="114" height="30" as="geometry" />
        </mxCell>
        <mxCell id="V9GFSU_2BiK_DdWcjL9w-18" value="&lt;font style=&quot;font-size: 10px;&quot;&gt;10.0.0.1&lt;/font&gt;" style="text;strokeColor=none;align=center;fillColor=none;html=1;verticalAlign=middle;whiteSpace=wrap;rounded=0;" vertex="1" parent="1">
          <mxGeometry x="373" y="84" width="60" height="30" as="geometry" />
        </mxCell>
        <mxCell id="V9GFSU_2BiK_DdWcjL9w-19" value="&lt;font style=&quot;font-size: 10px;&quot;&gt;10.0.0.2&lt;/font&gt;" style="text;strokeColor=none;align=center;fillColor=none;html=1;verticalAlign=middle;whiteSpace=wrap;rounded=0;" vertex="1" parent="1">
          <mxGeometry x="379.5" y="140" width="60" height="30" as="geometry" />
        </mxCell>
        <mxCell id="V9GFSU_2BiK_DdWcjL9w-20" value="IT&amp;nbsp;" style="text;strokeColor=none;align=center;fillColor=none;html=1;verticalAlign=middle;whiteSpace=wrap;rounded=0;" vertex="1" parent="1">
          <mxGeometry x="371" y="302" width="60" height="30" as="geometry" />
        </mxCell>
        <mxCell id="V9GFSU_2BiK_DdWcjL9w-21" value="&lt;div align=&quot;left&quot;&gt;Operations&amp;nbsp;&lt;/div&gt;&lt;div align=&quot;left&quot;&gt;&amp;nbsp; &amp;nbsp; -Custom built PC&lt;/div&gt;&lt;div align=&quot;left&quot;&gt;&amp;nbsp; &amp;nbsp; -Ryzen 7 CPU&lt;/div&gt;&lt;div align=&quot;left&quot;&gt;&amp;nbsp; &amp;nbsp; -32GB RAM&lt;/div&gt;&lt;div align=&quot;left&quot;&gt;&amp;nbsp; &amp;nbsp; -1TB NVME SSD&lt;/div&gt;&lt;div align=&quot;left&quot;&gt;&amp;nbsp; &amp;nbsp; -RTX 3050&lt;/div&gt;&lt;div align=&quot;left&quot;&gt;&amp;nbsp; &amp;nbsp; -Hosting 4 VMs to&amp;nbsp;simulate additional&amp;nbsp; &amp;nbsp; &amp;nbsp; &amp;nbsp; &amp;nbsp; devices in lab&lt;/div&gt;" style="text;strokeColor=none;align=left;fillColor=none;html=1;verticalAlign=middle;whiteSpace=wrap;rounded=0;" vertex="1" parent="1">
          <mxGeometry x="578" y="320" width="228" height="133" as="geometry" />
        </mxCell>
        <mxCell id="ObAqR6Oc7z6lpiyzgFZr-2" value="" style="endArrow=classic;startArrow=classic;html=1;rounded=0;" edge="1" parent="1">
          <mxGeometry width="50" height="50" relative="1" as="geometry">
            <mxPoint x="200" y="70" as="sourcePoint" />
            <mxPoint x="297" y="72" as="targetPoint" />
          </mxGeometry>
        </mxCell>
        <mxCell id="ObAqR6Oc7z6lpiyzgFZr-4" value="" style="endArrow=classic;startArrow=classic;html=1;rounded=0;" edge="1" parent="1">
          <mxGeometry width="50" height="50" relative="1" as="geometry">
            <mxPoint x="375.5" y="95" as="sourcePoint" />
            <mxPoint x="375.5" y="154" as="targetPoint" />
          </mxGeometry>
        </mxCell>
        <mxCell id="ObAqR6Oc7z6lpiyzgFZr-5" value="" style="endArrow=classic;startArrow=classic;html=1;rounded=0;exitX=1;exitY=0.15;exitDx=0;exitDy=0;exitPerimeter=0;" edge="1" parent="1" source="V9GFSU_2BiK_DdWcjL9w-4" target="V9GFSU_2BiK_DdWcjL9w-5">
          <mxGeometry width="50" height="50" relative="1" as="geometry">
            <mxPoint x="269" y="253" as="sourcePoint" />
            <mxPoint x="403" y="244" as="targetPoint" />
          </mxGeometry>
        </mxCell>
        <mxCell id="ObAqR6Oc7z6lpiyzgFZr-6" value="" style="endArrow=classic;startArrow=classic;html=1;rounded=0;" edge="1" parent="1">
          <mxGeometry width="50" height="50" relative="1" as="geometry">
            <mxPoint x="419" y="212" as="sourcePoint" />
            <mxPoint x="594" y="283" as="targetPoint" />
          </mxGeometry>
        </mxCell>
        <mxCell id="ObAqR6Oc7z6lpiyzgFZr-9" value="&lt;div&gt;Services&amp;nbsp;&lt;/div&gt;&lt;div align=&quot;left&quot;&gt;&amp;nbsp; &amp;nbsp; -Tower PC repurposed to server&lt;/div&gt;&lt;div align=&quot;left&quot;&gt;&amp;nbsp; &amp;nbsp; -Actice Directory Domain Controller&lt;/div&gt;&lt;div align=&quot;left&quot;&gt;&amp;nbsp; &amp;nbsp; -Hosting shared drive for other devices&lt;/div&gt;" style="edgeLabel;html=1;align=center;verticalAlign=middle;resizable=0;points=[];" vertex="1" connectable="0" parent="ObAqR6Oc7z6lpiyzgFZr-6">
          <mxGeometry x="-0.3923" relative="1" as="geometry">
            <mxPoint x="-365" y="124" as="offset" />
          </mxGeometry>
        </mxCell>
        <mxCell id="ObAqR6Oc7z6lpiyzgFZr-7" value="" style="endArrow=classic;startArrow=classic;html=1;rounded=0;" edge="1" parent="1">
          <mxGeometry width="50" height="50" relative="1" as="geometry">
            <mxPoint x="379" y="270.5" as="sourcePoint" />
            <mxPoint x="379" y="315" as="targetPoint" />
          </mxGeometry>
        </mxCell>
        <mxCell id="ObAqR6Oc7z6lpiyzgFZr-10" value="&lt;div&gt;Laptop removed from network due&amp;nbsp;&lt;/div&gt;&lt;div&gt;to faulty ethernet port; pending VPN&lt;/div&gt;&lt;div&gt;setup for access&lt;/div&gt;" style="text;html=1;align=left;verticalAlign=middle;resizable=0;points=[];autosize=1;strokeColor=none;fillColor=none;" vertex="1" parent="1">
          <mxGeometry x="305" y="327" width="209" height="55" as="geometry" />
        </mxCell>
        <mxCell id="ObAqR6Oc7z6lpiyzgFZr-14" value="" style="image;sketch=0;aspect=fixed;html=1;points=[];align=center;fontSize=12;image=img/lib/mscae/VM_Scale_Set.svg;" vertex="1" parent="1">
          <mxGeometry x="113" y="501" width="50" height="50" as="geometry" />
        </mxCell>
        <mxCell id="ObAqR6Oc7z6lpiyzgFZr-15" value="" style="image;sketch=0;aspect=fixed;html=1;points=[];align=center;fontSize=12;image=img/lib/mscae/VM_Scale_Set.svg;" vertex="1" parent="1">
          <mxGeometry x="280" y="501" width="50" height="50" as="geometry" />
        </mxCell>
        <mxCell id="ObAqR6Oc7z6lpiyzgFZr-16" value="" style="image;sketch=0;aspect=fixed;html=1;points=[];align=center;fontSize=12;image=img/lib/mscae/VM_Scale_Set.svg;" vertex="1" parent="1">
          <mxGeometry x="431" y="501" width="50" height="50" as="geometry" />
        </mxCell>
        <mxCell id="ObAqR6Oc7z6lpiyzgFZr-17" value="" style="image;sketch=0;aspect=fixed;html=1;points=[];align=center;fontSize=12;image=img/lib/mscae/VM_Scale_Set.svg;" vertex="1" parent="1">
          <mxGeometry x="604" y="504" width="50" height="50" as="geometry" />
        </mxCell>
        <mxCell id="ObAqR6Oc7z6lpiyzgFZr-24" value="" style="image;html=1;image=img/lib/clip_art/networking/Router_Icon_128x128.png" vertex="1" parent="1">
          <mxGeometry x="444" y="418" width="49" height="35" as="geometry" />
        </mxCell>
        <mxCell id="ObAqR6Oc7z6lpiyzgFZr-27" value="&lt;font style=&quot;font-size: 10px;&quot;&gt;30.0.0.5&lt;/font&gt;" style="text;strokeColor=none;align=center;fillColor=none;html=1;verticalAlign=middle;whiteSpace=wrap;rounded=0;" vertex="1" parent="1">
          <mxGeometry x="457" y="484" width="60" height="30" as="geometry" />
        </mxCell>
        <mxCell id="ObAqR6Oc7z6lpiyzgFZr-28" value="&lt;font style=&quot;font-size: 10px;&quot;&gt;30.0.0.4&lt;/font&gt;" style="text;strokeColor=none;align=center;fillColor=none;html=1;verticalAlign=middle;whiteSpace=wrap;rounded=0;" vertex="1" parent="1">
          <mxGeometry x="108" y="474" width="60" height="30" as="geometry" />
        </mxCell>
        <mxCell id="ObAqR6Oc7z6lpiyzgFZr-29" value="&lt;font style=&quot;font-size: 10px;&quot;&gt;30.0.0.3&lt;/font&gt;" style="text;strokeColor=none;align=center;fillColor=none;html=1;verticalAlign=middle;whiteSpace=wrap;rounded=0;" vertex="1" parent="1">
          <mxGeometry x="438.5" y="394" width="60" height="30" as="geometry" />
        </mxCell>
        <mxCell id="ObAqR6Oc7z6lpiyzgFZr-30" value="Virtual switch" style="text;strokeColor=none;align=center;fillColor=none;html=1;verticalAlign=middle;whiteSpace=wrap;rounded=0;" vertex="1" parent="1">
          <mxGeometry x="425" y="443" width="89" height="30" as="geometry" />
        </mxCell>
        <mxCell id="ObAqR6Oc7z6lpiyzgFZr-31" value="&lt;font style=&quot;font-size: 10px;&quot;&gt;30.0.0.2&lt;/font&gt;" style="text;strokeColor=none;align=center;fillColor=none;html=1;verticalAlign=middle;whiteSpace=wrap;rounded=0;" vertex="1" parent="1">
          <mxGeometry x="576" y="245" width="60" height="30" as="geometry" />
        </mxCell>
        <mxCell id="ObAqR6Oc7z6lpiyzgFZr-32" value="&lt;font style=&quot;font-size: 10px;&quot;&gt;30.0.0.7&lt;/font&gt;" style="text;strokeColor=none;align=center;fillColor=none;html=1;verticalAlign=middle;whiteSpace=wrap;rounded=0;" vertex="1" parent="1">
          <mxGeometry x="604" y="471" width="60" height="30" as="geometry" />
        </mxCell>
        <mxCell id="ObAqR6Oc7z6lpiyzgFZr-34" value="" style="endArrow=classic;startArrow=classic;html=1;rounded=0;entryX=-0.004;entryY=0.323;entryDx=0;entryDy=0;entryPerimeter=0;exitX=1;exitY=0.75;exitDx=0;exitDy=0;" edge="1" parent="1" source="ObAqR6Oc7z6lpiyzgFZr-29" target="V9GFSU_2BiK_DdWcjL9w-21">
          <mxGeometry width="50" height="50" relative="1" as="geometry">
            <mxPoint x="481" y="408" as="sourcePoint" />
            <mxPoint x="578" y="410" as="targetPoint" />
          </mxGeometry>
        </mxCell>
        <mxCell id="ObAqR6Oc7z6lpiyzgFZr-36" value="" style="endArrow=classic;startArrow=classic;html=1;rounded=0;" edge="1" parent="1" target="ObAqR6Oc7z6lpiyzgFZr-30">
          <mxGeometry width="50" height="50" relative="1" as="geometry">
            <mxPoint x="333" y="509" as="sourcePoint" />
            <mxPoint x="431" y="457" as="targetPoint" />
          </mxGeometry>
        </mxCell>
        <mxCell id="ObAqR6Oc7z6lpiyzgFZr-37" value="" style="endArrow=classic;startArrow=classic;html=1;rounded=0;" edge="1" parent="1">
          <mxGeometry width="50" height="50" relative="1" as="geometry">
            <mxPoint x="467" y="465" as="sourcePoint" />
            <mxPoint x="465" y="490" as="targetPoint" />
          </mxGeometry>
        </mxCell>
        <mxCell id="ObAqR6Oc7z6lpiyzgFZr-39" value="" style="endArrow=classic;startArrow=classic;html=1;rounded=0;exitX=1;exitY=0.5;exitDx=0;exitDy=0;" edge="1" parent="1" source="ObAqR6Oc7z6lpiyzgFZr-30">
          <mxGeometry width="50" height="50" relative="1" as="geometry">
            <mxPoint x="547" y="481" as="sourcePoint" />
            <mxPoint x="606" y="502" as="targetPoint" />
          </mxGeometry>
        </mxCell>
        <mxCell id="ObAqR6Oc7z6lpiyzgFZr-40" value="" style="endArrow=classic;startArrow=classic;html=1;rounded=0;exitX=1;exitY=0.15;exitDx=0;exitDy=0;exitPerimeter=0;" edge="1" parent="1" source="ObAqR6Oc7z6lpiyzgFZr-25">
          <mxGeometry width="50" height="50" relative="1" as="geometry">
            <mxPoint x="167" y="509" as="sourcePoint" />
            <mxPoint x="439" y="436" as="targetPoint" />
          </mxGeometry>
        </mxCell>
        <mxCell id="ObAqR6Oc7z6lpiyzgFZr-41" value="" style="endArrow=classic;startArrow=classic;html=1;rounded=0;exitX=1;exitY=0.15;exitDx=0;exitDy=0;exitPerimeter=0;" edge="1" parent="1" target="ObAqR6Oc7z6lpiyzgFZr-25">
          <mxGeometry width="50" height="50" relative="1" as="geometry">
            <mxPoint x="167" y="509" as="sourcePoint" />
            <mxPoint x="439" y="436" as="targetPoint" />
          </mxGeometry>
        </mxCell>
        <mxCell id="ObAqR6Oc7z6lpiyzgFZr-25" value="&lt;font style=&quot;font-size: 10px;&quot;&gt;30.0.0.8&lt;/font&gt;" style="text;strokeColor=none;align=center;fillColor=none;html=1;verticalAlign=middle;whiteSpace=wrap;rounded=0;" vertex="1" parent="1">
          <mxGeometry x="287" y="476" width="60" height="30" as="geometry" />
        </mxCell>
      </root>
    </mxGraphModel>
  </diagram>
  <diagram id="Q_0OBsLlLbi8-V9fTU1y" name="Page-2">
    <mxGraphModel dx="1513" dy="633" grid="0" gridSize="10" guides="1" tooltips="1" connect="1" arrows="1" fold="1" page="1" pageScale="1" pageWidth="827" pageHeight="1169" math="0" shadow="0">
      <root>
        <mxCell id="0" />
        <mxCell id="1" parent="0" />
      </root>
    </mxGraphModel>
  </diagram>
  <diagram id="IWQylyug9Z2oOPD_NqKn" name="Page-3">
    <mxGraphModel dx="1513" dy="633" grid="0" gridSize="10" guides="1" tooltips="1" connect="1" arrows="1" fold="1" page="1" pageScale="1" pageWidth="827" pageHeight="1169" math="0" shadow="0">
      <root>
        <mxCell id="0" />
        <mxCell id="1" parent="0" />
      </root>
    </mxGraphModel>
  </diagram>
</mxfile>
